# xmcd
#
# Track frame offsets:
#	150
#	15374
#	31648
#	48448
#	63072
#	86021
#	100383
#	113320
#	129407
#	158731
#	172281
#	178131
#	190409
#	205883
#	220450
#	243367
#	259872
#	277760
#	302828
#	312616
#	329202
#	338576
#	346713
#
# Disc length: 4709 seconds
#
# Revision: 1
# Processed by: cddbd v1.5.2PL0 Copyright (c) Steve Scherf et al.
# Submitted via: audiograbber 1.83.01
#
DISCID=46126317
DTITLE=Rodrigo Balla - Rodrigo Balla Vol 3
DYEAR=1900
DGENRE=
TTITLE0=Cabaré
TTITLE1=Paixão Mineira
TTITLE2=Parece Castigo
TTITLE3=Ela Encasquetou
TTITLE4=Vida Boa
TTITLE5=Leilão
TTITLE6=Locutor
TTITLE7=Me Apaixonei
TTITLE8=Pout Pourri - Arapuca - Fuscão Preto - Bão Tammém
TTITLE9=Nova York
TTITLE10=Preciso Te Encontrar
TTITLE11=O Que Tiver De Vir Virá
TTITLE12=Tá Pegando
TTITLE13=Risca Faca
TTITLE14=Beber, Cair, Levantar
TTITLE15=Evidências
TTITLE16=Só De Você
TTITLE17=Pout Pourri - Amigo Apaixonado - Fada
TTITLE18=Fogo E Paixão
TTITLE19=Pout Pourri - Sem Medo De Ser Feliz - Magia E Mistério
TTITLE20=Telefone Mudo
TTITLE21=Boate Azul
TTITLE22=Fio De Cabelo
EXTD=
EXTT0=
EXTT1=
EXTT2=
EXTT3=
EXTT4=
EXTT5=
EXTT6=
EXTT7=
EXTT8=
EXTT9=
EXTT10=
EXTT11=
EXTT12=
EXTT13=
EXTT14=
EXTT15=
EXTT16=
EXTT17=
EXTT18=
EXTT19=
EXTT20=
EXTT21=
EXTT22=
PLAYORDER=
